<svg width="64" height="40" viewBox="0 0 64 40" fill="none" xmlns="http://www.w3.org/2000/svg">
<rect width="64" height="40" rx="20" fill="#F2542D"/>
<path d="M42.7504 14V23.75C42.7504 23.9489 42.6714 24.1397 42.5307 24.2803C42.3901 24.421 42.1993 24.5 42.0004 24.5C41.8015 24.5 41.6107 24.421 41.4701 24.2803C41.3294 24.1397 41.2504 23.9489 41.2504 23.75V15.8103L30.531 26.5306C30.3903 26.6714 30.1994 26.7504 30.0004 26.7504C29.8014 26.7504 29.6105 26.6714 29.4698 26.5306C29.3291 26.3899 29.25 26.199 29.25 26C29.25 25.801 29.3291 25.6101 29.4698 25.4694L40.1901 14.75H32.2504C32.0515 14.75 31.8607 14.671 31.7201 14.5303C31.5794 14.3897 31.5004 14.1989 31.5004 14C31.5004 13.8011 31.5794 13.6103 31.7201 13.4697C31.8607 13.329 32.0515 13.25 32.2504 13.25H42.0004C42.1993 13.25 42.3901 13.329 42.5307 13.4697C42.6714 13.6103 42.7504 13.8011 42.7504 14Z" fill="white"/>
</svg>
