<svg width="28" height="29" viewBox="0 0 28 29" fill="none" xmlns="http://www.w3.org/2000/svg">
<path d="M25.375 13.625H24.4628C24.2528 11.1525 23.1753 8.83394 21.4207 7.07934C19.6661 5.32473 17.3475 4.24716 14.875 4.03719V3.125C14.875 2.89294 14.7828 2.67038 14.6187 2.50628C14.4546 2.34219 14.2321 2.25 14 2.25C13.7679 2.25 13.5454 2.34219 13.3813 2.50628C13.2172 2.67038 13.125 2.89294 13.125 3.125V4.03719C10.6525 4.24716 8.33394 5.32473 6.57934 7.07934C4.82473 8.83394 3.74716 11.1525 3.53719 13.625H2.625C2.39294 13.625 2.17038 13.7172 2.00628 13.8813C1.84219 14.0454 1.75 14.2679 1.75 14.5C1.75 14.7321 1.84219 14.9546 2.00628 15.1187C2.17038 15.2828 2.39294 15.375 2.625 15.375H3.53719C3.74716 17.8475 4.82473 20.1661 6.57934 21.9207C8.33394 23.6753 10.6525 24.7528 13.125 24.9628V25.875C13.125 26.1071 13.2172 26.3296 13.3813 26.4937C13.5454 26.6578 13.7679 26.75 14 26.75C14.2321 26.75 14.4546 26.6578 14.6187 26.4937C14.7828 26.3296 14.875 26.1071 14.875 25.875V24.9628C17.3475 24.7528 19.6661 23.6753 21.4207 21.9207C23.1753 20.1661 24.2528 17.8475 24.4628 15.375H25.375C25.6071 15.375 25.8296 15.2828 25.9937 15.1187C26.1578 14.9546 26.25 14.7321 26.25 14.5C26.25 14.2679 26.1578 14.0454 25.9937 13.8813C25.8296 13.7172 25.6071 13.625 25.375 13.625ZM21.875 15.375H22.7063C22.5014 17.3822 21.6106 19.2573 20.1839 20.6839C18.7573 22.1106 16.8822 23.0014 14.875 23.2063V22.375C14.875 22.1429 14.7828 21.9204 14.6187 21.7563C14.4546 21.5922 14.2321 21.5 14 21.5C13.7679 21.5 13.5454 21.5922 13.3813 21.7563C13.2172 21.9204 13.125 22.1429 13.125 22.375V23.2063C11.1178 23.0014 9.24274 22.1106 7.81609 20.6839C6.38944 19.2573 5.49855 17.3822 5.29375 15.375H6.125C6.35706 15.375 6.57962 15.2828 6.74372 15.1187C6.90781 14.9546 7 14.7321 7 14.5C7 14.2679 6.90781 14.0454 6.74372 13.8813C6.57962 13.7172 6.35706 13.625 6.125 13.625H5.29375C5.49855 11.6178 6.38944 9.74274 7.81609 8.31609C9.24274 6.88944 11.1178 5.99855 13.125 5.79375V6.625C13.125 6.85706 13.2172 7.07962 13.3813 7.24372C13.5454 7.40781 13.7679 7.5 14 7.5C14.2321 7.5 14.4546 7.40781 14.6187 7.24372C14.7828 7.07962 14.875 6.85706 14.875 6.625V5.79375C16.8822 5.99855 18.7573 6.88944 20.1839 8.31609C21.6106 9.74274 22.5014 11.6178 22.7063 13.625H21.875C21.6429 13.625 21.4204 13.7172 21.2563 13.8813C21.0922 14.0454 21 14.2679 21 14.5C21 14.7321 21.0922 14.9546 21.2563 15.1187C21.4204 15.2828 21.6429 15.375 21.875 15.375ZM18.375 14.5C18.375 15.3653 18.1184 16.2112 17.6377 16.9306C17.1569 17.6501 16.4737 18.2108 15.6742 18.542C14.8748 18.8731 13.9951 18.9597 13.1465 18.7909C12.2978 18.6221 11.5183 18.2054 10.9064 17.5936C10.2946 16.9817 9.87787 16.2022 9.70906 15.3535C9.54025 14.5049 9.62689 13.6252 9.95803 12.8258C10.2892 12.0263 10.8499 11.3431 11.5694 10.8623C12.2888 10.3816 13.1347 10.125 14 10.125C15.1603 10.125 16.2731 10.5859 17.0936 11.4064C17.9141 12.2269 18.375 13.3397 18.375 14.5Z" fill="#F2542D"/>
</svg>
