<svg width="28" height="29" viewBox="0 0 28 29" fill="none" xmlns="http://www.w3.org/2000/svg">
<path fill-rule="evenodd" clip-rule="evenodd" d="M24.2216 2.25V8.40668C24.5174 8.46118 24.8003 8.57616 25.0523 8.74588C25.4153 8.99046 25.6975 9.33753 25.8639 9.74258C26.0303 10.1476 26.0738 10.5929 25.989 11.0225C25.9043 11.4522 25.6949 11.8475 25.3866 12.1584C25.0782 12.4692 24.6847 12.6816 24.2555 12.7676C23.8263 12.8537 23.3814 12.8095 22.9774 12.6408C22.5734 12.4721 22.229 12.1868 21.9871 11.8218C21.7453 11.4568 21.6165 11.0283 21.6165 10.5904H22.929C22.929 10.7711 22.9821 10.9473 23.0812 11.0967C23.1801 11.246 23.3202 11.3616 23.4832 11.4296C23.646 11.4977 23.8249 11.5154 23.9974 11.4808C24.17 11.4462 24.3293 11.3606 24.4548 11.2341C24.5803 11.1075 24.6664 10.9456 24.7014 10.7685C24.7363 10.5914 24.7183 10.4079 24.6499 10.2414C24.5815 10.0749 24.4661 9.93351 24.319 9.83442C24.1719 9.73537 23.9997 9.68285 23.8239 9.68285H23.5505L22.9091 9.03622V2.25H24.2216ZM3.76908 2.6363H4.92975L5.11094 2.78645L5.11265 2.78784L5.12394 2.79692C5.13491 2.80567 5.15271 2.81967 5.17695 2.83818C5.22548 2.87524 5.2996 2.93018 5.39639 2.99709C5.59042 3.13123 5.87288 3.31163 6.22035 3.49205C6.90618 3.84816 7.80498 4.18331 8.75766 4.19952C9.7805 3.85374 10.8527 3.67778 11.9322 3.67886H12.7591C15.6656 3.67886 18.2589 5.05962 19.9548 7.33076L20.0852 7.50542V8.47794L19.6106 8.61465C18.7896 8.85115 18.009 9.27182 17.4224 9.64531C17.3464 9.6937 17.2741 9.74101 17.2059 9.78669C17.6843 9.92764 18.3664 10.0883 19.2525 10.2L19.8267 10.2723V11.382L19.6364 11.5738C18.5551 12.664 17.5279 13.3771 16.4012 13.8095C15.2783 14.2404 14.1034 14.3743 12.7591 14.3743H11.9318C10.0842 14.3743 8.4517 16.101 8.4517 18.4096C8.4517 20.5658 9.87594 22.2144 11.5694 22.4226C12.8083 20.4275 14.9755 18.7959 17.5159 18.7959H18.1722V20.065L17.8804 20.2585L17.8794 20.2591L17.8786 20.2597L17.8697 20.2659C17.8598 20.2728 17.8435 20.2844 17.8215 20.3006C17.7776 20.3331 17.7117 20.3837 17.6311 20.4514C17.469 20.5875 17.2523 20.7889 17.0366 21.0464C16.5994 21.5684 16.2074 22.2705 16.2074 23.1011C16.2074 23.9316 16.5994 24.6338 17.0366 25.1557C17.2523 25.4133 17.469 25.6146 17.6311 25.7507C17.7117 25.8184 17.7776 25.8691 17.8215 25.9015C17.8435 25.9178 17.8598 25.9294 17.8697 25.9363L17.8786 25.9425L17.8794 25.943L17.8804 25.9436L18.1722 26.1372V27.4062H17.5159C14.963 27.4062 12.7869 25.7585 11.5511 23.75C9.04542 23.6535 6.66315 22.6077 4.88498 20.815C3.01714 18.9319 1.96875 16.3789 1.96875 13.7181C1.96875 10.0223 2.36155 7.36669 2.76086 5.62219C2.96049 4.75008 3.1616 4.10626 3.31574 3.67459C3.3928 3.45878 3.45809 3.29608 3.50554 3.18446C3.52926 3.12866 3.54852 3.08563 3.56255 3.05513C3.56957 3.03989 3.57528 3.02777 3.57959 3.01875L3.58499 3.00755L3.58688 3.00369L3.58762 3.00219C3.58762 3.00219 3.58822 3.00098 4.17614 3.29255L3.58822 3.00098L3.76908 2.6363ZM4.58299 4.02987C4.57291 4.05728 4.56251 4.08597 4.5518 4.11596C4.4151 4.49879 4.22844 5.09301 4.04027 5.91504C3.89898 6.53233 3.75677 7.27842 3.63425 8.16028C3.69061 8.07481 3.74834 7.99012 3.80741 7.90623C4.59465 6.78837 5.59625 5.85076 6.74564 5.1443C6.32257 4.99872 5.9412 4.82599 5.61552 4.65689C5.21004 4.44635 4.88012 4.23579 4.65002 4.07671C4.62666 4.06057 4.60431 4.04494 4.58299 4.02987ZM3.28125 13.7181C3.28125 16.0343 4.19393 18.2545 5.81683 19.8907C6.46933 20.5485 7.21512 21.0903 8.02272 21.503C7.46291 20.6198 7.1392 19.5458 7.1392 18.4096C7.1392 15.5366 9.20871 13.0618 11.9318 13.0618H12.7591C14.0197 13.0618 15.0163 12.9351 15.9309 12.5841C16.6132 12.3223 17.2761 11.9254 17.9807 11.3243C17.4352 11.2165 16.9904 11.0966 16.6465 10.9883C16.3701 10.9012 16.159 10.8216 16.0133 10.762C15.9405 10.7321 15.8841 10.7073 15.844 10.689C15.8239 10.6798 15.808 10.6723 15.7961 10.6666L15.7814 10.6594L15.7763 10.6569L15.7744 10.6559L15.7735 10.6555C15.7735 10.6555 15.7728 10.6552 16.0682 10.0691L15.7735 10.6555L15.4119 10.4733V9.50274L15.646 9.30606L16.0682 9.80851C15.646 9.30606 15.646 9.30606 15.646 9.30606L15.6471 9.30519L15.6487 9.30385L15.6536 9.29977L15.6701 9.28616C15.684 9.27473 15.7038 9.25866 15.7291 9.23847C15.7797 9.1981 15.8525 9.14117 15.945 9.07181C16.1296 8.93328 16.3939 8.74421 16.7175 8.5382C17.1918 8.23617 17.8075 7.88867 18.4958 7.61295C17.0474 5.96182 15.0119 4.99136 12.7591 4.99136H11.9318C10.9625 4.99036 9.99911 5.15399 9.08348 5.47546C7.38947 6.07203 5.92045 7.18527 4.88051 8.66195C3.84048 10.1388 3.28133 11.9058 3.28125 13.7181ZM15.8647 25.7912C15.3722 25.1448 14.8949 24.2291 14.8949 23.1011C14.8949 21.9731 15.3722 21.0573 15.8647 20.4109C14.575 20.8873 13.4504 21.8846 12.6928 23.1011C13.4504 24.3175 14.575 25.3148 15.8647 25.7912Z" fill="#F2542D"/>
<path fill-rule="evenodd" clip-rule="evenodd" d="M17.827 8.94493C18.4095 8.72397 18.8124 8.57116 18.8124 7.50016C18.8124 6.67245 15.7499 4.87516 13.9999 4.87516C13.5418 4.30362 11.6235 4.54856 10.1619 4.73518C9.5773 4.80984 9.06575 4.87516 8.74994 4.87516C6.81695 4.87516 2.625 11.2547 2.625 13.1877C2.625 13.5152 5.20533 21.3008 6.5625 21.5002C6.87509 21.5461 7.0735 21.6323 7.26646 21.7161C7.53151 21.8313 7.78627 21.942 8.3125 21.9377C7.4375 18.4377 8.89751 14.1718 9.625 14.0627C10.2258 13.9725 11.0391 13.8621 11.9018 13.745C13.2795 13.5581 14.7833 13.354 15.75 13.1877C16.971 12.9775 17.418 12.4838 17.7907 12.0722C18.0728 11.7606 18.3122 11.4962 18.8124 11.4377C19.8725 11.3136 18.121 10.7766 16.9874 10.4291C16.4121 10.2527 15.9959 10.1251 16.1874 10.1251C16.7728 9.34475 17.3581 9.12277 17.827 8.94493ZM14.6545 6.42008H13.3438V8.50163H14.6545V6.42008Z" fill="#F2542D"/>
</svg>

