<svg width="28" height="29" viewBox="0 0 28 29" fill="none" xmlns="http://www.w3.org/2000/svg">
<path d="M27.8752 21.9288L21.9077 11.8575C21.7538 11.5951 21.5337 11.3778 21.2693 11.2273C21.005 11.0768 20.7058 10.9984 20.4016 11C20.0976 10.9984 19.7985 11.0768 19.5343 11.2273C19.2702 11.3778 19.0503 11.5952 18.8966 11.8575L17.186 14.7439C17.1462 14.8113 17.1251 14.8882 17.1251 14.9665C17.1251 15.0448 17.1462 15.1217 17.186 15.1891L20.1172 20.1623C20.2286 20.347 20.269 20.5659 20.2309 20.7782C20.1929 20.9905 20.079 21.1817 19.9105 21.3163C19.8123 21.3925 19.699 21.447 19.5781 21.476C19.4571 21.505 19.3314 21.5079 19.2093 21.4845C19.0872 21.4611 18.9715 21.412 18.8698 21.3403C18.7682 21.2687 18.683 21.1762 18.6199 21.0691L11.131 8.36188C10.9764 8.09923 10.756 7.88148 10.4915 7.7302C10.2269 7.57892 9.92745 7.49934 9.62271 7.49934C9.31796 7.49934 9.0185 7.57892 8.75396 7.7302C8.48942 7.88148 8.26897 8.09923 8.11442 8.36188L0.119113 21.9309C0.0226435 22.0931 -0.0188283 22.2821 0.000882468 22.4697C0.0205932 22.6574 0.10043 22.8336 0.228488 22.9722C0.314718 23.0624 0.41875 23.1336 0.533982 23.1814C0.649213 23.2293 0.773128 23.2526 0.897863 23.25H27.0975C27.2218 23.2516 27.345 23.2277 27.4596 23.1797C27.5741 23.1317 27.6776 23.0607 27.7636 22.9711C27.8923 22.8327 27.9727 22.6564 27.9928 22.4685C28.0129 22.2806 27.9717 22.0912 27.8752 21.9288ZM7.04474 13.625L9.62271 9.25L12.2007 13.625H7.04474ZM15.3102 6.1875C15.3102 5.66833 15.4642 5.16081 15.7526 4.72913C16.041 4.29745 16.451 3.961 16.9307 3.76232C17.4103 3.56364 17.9381 3.51165 18.4473 3.61294C18.9565 3.71423 19.4242 3.96423 19.7914 4.33135C20.1585 4.69846 20.4085 5.16619 20.5098 5.67539C20.6111 6.18459 20.5591 6.71239 20.3604 7.19205C20.1617 7.6717 19.8253 8.08167 19.3936 8.37011C18.9619 8.65855 18.4544 8.8125 17.9352 8.8125C17.239 8.8125 16.5713 8.53594 16.0791 8.04366C15.5868 7.55137 15.3102 6.88369 15.3102 6.1875Z" fill="#F2542D"/>
</svg>
